<svg width="75" height="68" viewBox="0 0 75 68" fill="none" xmlns="http://www.w3.org/2000/svg">
<g id="Group">
<path id="Vector" d="M64.3501 43.9035L51.0436 49.525C51.0673 49.3589 51.0911 49.1929 51.0911 49.015C51.0911 46.4296 48.9919 44.3305 46.4065 44.3305H36.824C36.4326 44.3305 36.0531 44.2475 35.6974 44.0814L27.5735 40.405C26.3046 39.8357 24.8933 39.5273 23.5057 39.5273H16.8881V41.8993H23.5057C24.5612 41.8993 25.6286 42.1246 26.6011 42.5634L34.7249 46.2399C35.389 46.5363 36.1006 46.6905 36.8359 46.6905H46.4184C47.6992 46.6905 48.731 47.7342 48.731 49.0031C48.731 50.2721 47.6874 51.3158 46.4184 51.3158H34.0014V53.6877H46.4065C47.2248 53.6877 47.9839 53.4623 48.648 53.0947V53.1065L65.2632 46.0738C66.639 45.4927 68.1451 45.5046 69.509 46.0975C70.5526 46.5601 71.4065 47.3072 71.9758 48.2797L42.6471 63.8395C40.4056 65.0254 37.7372 65.2626 35.3178 64.4917L20.9678 59.8784L16.8762 59.8191V62.191H20.4222L34.5944 66.745C35.7685 67.1246 36.9782 67.3025 38.1997 67.3025C40.121 67.3025 42.0422 66.8399 43.75 65.9267L75 49.3708L74.656 48.3983C73.9326 46.3822 72.4383 44.793 70.4696 43.9272C68.5009 43.0852 66.3306 43.0615 64.3501 43.9035Z" fill="#222426"/>
<path id="Vector_2" d="M14.3145 64.0547V38.8768C14.3145 37.5722 13.2471 36.5049 11.9426 36.5049H0V38.8768H11.9426V64.0665H0V66.4384H11.9426C13.2471 66.4266 14.3145 65.3592 14.3145 64.0547Z" fill="#222426"/>
<path id="Vector_3" d="M8.8235 60.3665C8.8235 61.2797 8.07635 62.0269 7.16317 62.0269C6.23812 62.0269 5.49097 61.2797 5.49097 60.3665C5.49097 59.4415 6.23812 58.6943 7.16317 58.6943C8.07635 58.6943 8.8235 59.4415 8.8235 60.3665Z" fill="#222426"/>
<path id="Vector_4" d="M28.06 28.2258L29.3409 29.1745L38.1644 24.2884L46.1459 29.0915L46.8337 29.4947L48.1145 28.5697L46.1933 18.6788L53.2497 12.5593L53.819 12.0137L53.3209 10.5432L43.3351 9.30976L39.7061 0.723433L39.3741 0.0118593L38.615 0H37.8086L33.551 9.14373L24.2531 9.92646L23.4585 10.0213L22.9841 11.5038L30.3489 18.3705L28.06 28.2258ZM27.052 12.073L34.4286 11.4326L35.1283 11.3496L38.532 4.04411L41.4139 10.8396L41.7104 11.4919L49.7275 12.4763L44.1772 17.2912L43.6198 17.7656L45.1615 25.7115L38.8048 21.8809L38.2 21.5607L31.1672 25.4625L32.8157 18.3467L33.0173 17.6115L27.052 12.073Z" fill="#222426"/>
<path id="Vector_5" d="M12.4645 23.849L10.7449 31.2375L10.5077 32.0914L11.8478 33.0757L19.2363 28.9842L25.7591 32.8978L26.4944 33.3603L27.8108 32.3997L26.1979 24.1099L27.9175 22.6274L26.3639 20.8366L24.075 22.8172L23.7311 23.2204V23.6948L24.8459 29.589L20.0309 26.6834L19.7819 26.4462L18.7738 26.4225L18.5366 26.6597L13.6149 29.3874L14.9432 23.6236V22.9239L10.3298 18.6308L15.9749 18.1327L16.5205 18.1208L17.0186 17.6227L19.5447 12.191L21.8217 17.5634L22.1894 18.2631H22.8535L25.7116 18.6189L26.0081 16.2589L23.7192 15.9861L20.7069 8.87034L20.3037 8.11133L18.6671 8.24178L18.4417 8.9415L15.2397 15.8319L7.69697 16.4842L6.76006 16.5316L6.26196 18.2631L6.91424 18.6901L12.4645 23.849Z" fill="#222426"/>
<path id="Vector_6" d="M51.4467 15.9875L51.6602 18.3475L53.9491 18.1341L54.4828 18.1103L54.9809 17.6122L57.5069 12.1805L59.6772 17.292L59.701 18.2526H60.8158L66.4728 18.9524L62.0729 22.7711L61.6815 23.1862V23.6962L62.8082 29.5785L57.9813 26.6848L57.7323 26.4357L56.6886 26.4476L56.4752 26.6729L51.5772 29.3888L52.9173 23.625L52.9054 22.9253L49.8694 20.0909L48.2446 21.8224L50.4149 23.8504L48.7072 31.2389L48.47 32.0335L49.7627 33.1008L57.1986 28.9856L63.7332 32.9111L64.4685 33.3617L65.7612 32.3892L64.1483 24.1113L69.8528 19.1658C70.2441 18.8575 70.4102 18.3357 70.2797 17.8613L70.0069 17.0193L61.6815 15.9993L58.6455 8.85987L58.2897 8.20759L56.8784 8.16016L56.5107 8.74127L53.1901 15.8333L51.4467 15.9875Z" fill="#222426"/>
</g>
</svg>
